<?xml version="1.0" encoding="utf-8"?>
<svg id="master-artboard" viewBox="0 0 100 100" version="1.1" xmlns="http://www.w3.org/2000/svg" x="0px" y="0px" style="enable-background:new 0 0 1400 980;" width="100px" height="100px"><rect id="ee-background" x="0" y="0" width="100" height="100" style="fill: white; fill-opacity: 0; pointer-events: none;"/><g transform="matrix(2.8125002384185795, 0, 0, 2.8125002384185795, 5.000005245208769, 4.9999931792559735)"><g id="Style_2_copy_4"/></g><g transform="matrix(1.7638860348021395, 0, 0, 1.7638860348021395, 160.5136438982741, -86.81317362332162)"><path d="M-37.8702,64.6716h-1.9682c-0.7307,0-1.7639,1.054-1.7639,1.7288v24.4576c0,0.6756,1.0331,1.5964,1.7639,1.5964h1.9682  v5.8054h-17.8308v-5.8054h3.732V66.745h-0.1829l-8.715,31.515h-6.7474l-8.6026-31.515h-0.2177v25.7096h3.732v5.8054h-14.9281  v-5.8054h1.9115c0.7873,0,1.8205-0.9209,1.8205-1.5964V66.4005c0-0.6748-1.0332-1.7288-1.8205-1.7288h-1.9115v-5.8054h18.6669  l6.1287,22.8069h0.1686l6.1854-22.8069h18.6108V64.6716z"/></g></svg>